<svg xmlns="http://www.w3.org/2000/svg" xmlns:xlink="http://www.w3.org/1999/xlink" viewBox="0 0 32 32" width="24" height="24" style="" filter="none">
    
    <g>
    <path d="M10.336 9.696c-0.544 0.192-1.056 0.48-1.632 0.544-1.12 0.16-2.272 0.192-3.392 0.288l-1.536 0.128c-0.352 0.032-0.448 0.128-0.416 0.48 0 0.064 0 0.16 0.032 0.224-0.384 0.032-0.672 0.064-0.992 0.096s-0.416 0.128-0.384 0.448c0.096 1.6 0.224 3.168 0.352 4.768 0 0.32 0.128 0.416 0.448 0.384 0.32 0 0.64-0.032 0.992-0.064v0.288c0.032 0.32 0.096 0.352 0.416 0.32l1.536-0.096c0.448-0.032 0.448-0.032 0.672 0.384l0.864 1.824 3.36 6.88c0.224 0.416 0.32 0.48 0.768 0.416 0.711-0.032 1.343-0.077 1.969-0.14l-0.145 0.012c0.32-0.032 0.416-0.128 0.256-0.448-0.16-0.352-0.352-0.736-0.544-1.12-1.088-2.208-2.176-4.448-3.296-6.656-0.128-0.32-0.16-0.608 0.064-0.896 0.224-0.256 0.512-0.32 0.832-0.224 3.52 0.864 7.008 1.728 10.496 2.592 0.448 0.096 0.896 0.224 1.344 0.32-0.384-5.056-0.736-10.112-1.12-15.168-0.096 0-0.16 0.032-0.256 0.064-3.552 1.44-7.136 2.912-10.688 4.352zM24.096 5.216c-0.096-0.096-0.224-0.256-0.32-0.256-0.576 0-1.184 0.064-1.792 0.096 0.384 5.184 0.768 10.304 1.152 15.456 0.544-0.032 1.056-0.064 1.568-0.096 0.416-0.032 0.512-0.128 0.48-0.576l-1.056-14.4c-0.032-0.064 0-0.16-0.032-0.224zM27.36 14.688c-0.384-0.224-0.832-0.096-1.056 0.288-0.16 0.32-0.096 0.704 0.224 0.928 0.608 0.48 1.248 0.928 1.888 1.376 0.046 0.028 0.099 0.050 0.156 0.063l0.004 0.001c0.384 0.128 0.736-0.032 0.896-0.384 0.16-0.256 0.064-0.704-0.192-0.896-0.64-0.48-1.28-0.928-1.92-1.376zM26.144 10.272c0.288 0.192 0.64 0.16 0.928-0.096 0.544-0.512 1.088-1.024 1.6-1.568 0.096-0.096 0.16-0.224 0.192-0.256 0.096-0.416-0.032-0.736-0.288-0.896-0.32-0.192-0.672-0.16-0.928 0.064-0.544 0.544-1.088 1.056-1.6 1.6-0.097 0.067-0.166 0.168-0.191 0.285l-0.001 0.003c-0.128 0.32 0 0.672 0.288 0.864zM29.28 11.488c-0.8 0.032-1.632 0.096-2.432 0.192-0.352 0.032-0.576 0.352-0.576 0.704s0.192 0.64 0.576 0.736c0 0 0.064 0.032 0.096 0.032 0.832-0.064 1.664-0.128 2.464-0.192 0.384-0.064 0.608-0.416 0.608-0.768-0.032-0.384-0.352-0.704-0.736-0.704z" fill="rgba(255,255,255,1)"></path>
    </g>
  </svg>