<svg width="2405" height="1449" viewBox="0 0 2405 1449" fill="none" xmlns="http://www.w3.org/2000/svg">
<g clip-path="url(#clip0_5_40)">
<path fill-rule="evenodd" clip-rule="evenodd" d="M1692.81 436.992L2090.62 437.043C2107.59 437.045 2123.87 443.788 2135.87 455.788L2192.02 511.945L2358.9 678.823C2383.89 703.816 2383.89 744.339 2358.9 769.332L2192.02 936.209L1725.33 1402.9C1700.34 1427.89 1659.82 1427.89 1634.82 1402.9L1513.2 1281.28C1488.21 1256.28 1488.21 1215.76 1513.2 1190.77L1968.58 735.391C1974.83 729.143 1974.83 719.012 1968.58 712.764L1979.89 724.077L1692.81 436.992Z" fill="#383C93"/>
<path fill-rule="evenodd" clip-rule="evenodd" d="M1238.36 1003C1247.81 1008.27 1258.52 1011.11 1269.54 1011.11L1667.35 1011.16L1567 910.813L1567 1003H1238.36ZM1567 537.342L1846.95 257.387C1871.95 232.393 1871.95 191.871 1846.95 166.877L1725.33 45.2549C1700.34 20.2614 1659.82 20.2614 1634.82 45.2549L1168.13 511.945L1144.08 536L1567 536L1567 537.342Z" fill="#43A756"/>
<path d="M185.841 970.336V963.112H202.977C206.281 963.112 208.829 962.188 210.621 960.34C212.469 958.436 213.393 955.916 213.393 952.78C213.393 949.588 212.497 947.096 210.705 945.304C208.913 943.456 206.337 942.532 202.977 942.532H185.841V937.156H201.801C205.721 937.156 209.165 937.632 212.133 938.584C215.157 939.536 217.509 941.132 219.189 943.372C220.925 945.556 221.793 948.552 221.793 952.36V953.536C221.793 957.12 221.065 960.172 219.609 962.692C218.153 965.156 215.941 967.06 212.973 968.404C210.005 969.692 206.281 970.336 201.801 970.336H185.841ZM179.289 970.336V908.344H187.521V970.336H179.289ZM185.841 941.02V935.644H200.709C204.181 935.644 206.729 934.72 208.353 932.872C210.033 930.968 210.873 928.56 210.873 925.648C210.873 922.68 210.033 920.272 208.353 918.424C206.729 916.52 204.181 915.568 200.709 915.568H185.841V908.344H199.281C206.001 908.344 211.013 909.772 214.317 912.628C217.621 915.428 219.273 919.488 219.273 924.808V925.984C219.273 929.736 218.433 932.732 216.753 934.972C215.073 937.156 212.721 938.724 209.697 939.676C206.729 940.572 203.257 941.02 199.281 941.02H185.841ZM236.383 970V908.68H244.615V970H236.383ZM242.935 970V962.608H272.671V970H242.935ZM242.935 942.532V935.14H270.067V942.532H242.935ZM242.935 916.072V908.68H271.831V916.072H242.935ZM333.247 971.512C328.487 971.512 324.175 970.728 320.311 969.16C316.447 967.592 313.115 965.38 310.315 962.524C307.571 959.668 305.443 956.308 303.931 952.444C302.419 948.524 301.663 944.268 301.663 939.676V937.828C301.663 933.908 302.335 930.128 303.679 926.488C305.079 922.792 307.067 919.488 309.643 916.576C312.275 913.608 315.467 911.284 319.219 909.604C322.971 907.868 327.199 907 331.903 907C336.999 907 341.535 907.98 345.511 909.94C349.487 911.844 352.679 914.532 355.087 918.004C357.495 921.42 358.895 925.396 359.287 929.932H350.887C350.495 926.516 349.375 923.688 347.527 921.448C345.679 919.152 343.383 917.444 340.639 916.324C337.951 915.148 335.039 914.56 331.903 914.56C328.711 914.56 325.771 915.148 323.083 916.324C320.395 917.444 318.071 919.068 316.111 921.196C314.207 923.324 312.723 925.872 311.659 928.84C310.595 931.808 310.063 935.14 310.063 938.836C310.063 943.036 310.623 946.732 311.743 949.924C312.919 953.06 314.543 955.692 316.615 957.82C318.687 959.892 321.123 961.46 323.923 962.524C326.779 963.588 329.887 964.12 333.247 964.12C338.007 964.12 342.179 963.168 345.763 961.264C349.403 959.304 352.147 956.784 353.995 953.704L350.971 963.7V945.472H358.699V960.088C355.955 963.672 352.427 966.472 348.115 968.488C343.803 970.504 338.847 971.512 333.247 971.512ZM331.063 947.152V940.264H363.907V947.152H331.063ZM375.672 970V908.344H383.904V970H375.672ZM413.556 970L393.228 942.7H402.888L423.552 970H413.556ZM380.796 947.824V940.516H397.26C399.836 940.516 402.048 939.984 403.896 938.92C405.744 937.856 407.172 936.4 408.18 934.552C409.188 932.648 409.692 930.492 409.692 928.084C409.692 925.676 409.188 923.548 408.18 921.7C407.172 919.796 405.744 918.312 403.896 917.248C402.048 916.128 399.836 915.568 397.26 915.568H380.796V908.344H395.748C400.228 908.344 404.148 909.016 407.508 910.36C410.868 911.704 413.472 913.776 415.32 916.576C417.168 919.376 418.092 922.988 418.092 927.412V928.756C418.092 933.18 417.14 936.792 415.236 939.592C413.388 942.392 410.784 944.464 407.424 945.808C404.12 947.152 400.228 947.824 395.748 947.824H380.796ZM434.488 970V908.68H442.72V970H434.488ZM441.04 970V962.608H470.776V970H441.04ZM441.04 942.532V935.14H468.172V942.532H441.04ZM441.04 916.072V908.68H469.936V916.072H441.04ZM484.855 970V908.68H493.087V970H484.855ZM491.407 970V962.608H521.143V970H491.407ZM491.407 942.532V935.14H518.539V942.532H491.407ZM491.407 916.072V908.68H520.303V916.072H491.407ZM535.222 970V908.68H548.662L579.826 962.608H582.514L580.834 964.12V908.68H588.73V970H575.122L543.958 916.072H541.27L542.95 914.56V970H535.222ZM606.256 983.188L599.788 980.752L607.6 959.08L614.236 961.6L606.256 983.188ZM654.157 970.336V963.112H671.293C674.597 963.112 677.145 962.188 678.937 960.34C680.785 958.436 681.709 955.916 681.709 952.78C681.709 949.588 680.813 947.096 679.021 945.304C677.229 943.456 674.653 942.532 671.293 942.532H654.157V937.156H670.117C674.037 937.156 677.481 937.632 680.449 938.584C683.473 939.536 685.825 941.132 687.505 943.372C689.241 945.556 690.109 948.552 690.109 952.36V953.536C690.109 957.12 689.381 960.172 687.925 962.692C686.469 965.156 684.257 967.06 681.289 968.404C678.321 969.692 674.597 970.336 670.117 970.336H654.157ZM647.605 970.336V908.344H655.837V970.336H647.605ZM654.157 941.02V935.644H669.025C672.497 935.644 675.045 934.72 676.669 932.872C678.349 930.968 679.189 928.56 679.189 925.648C679.189 922.68 678.349 920.272 676.669 918.424C675.045 916.52 672.497 915.568 669.025 915.568H654.157V908.344H667.597C674.317 908.344 679.329 909.772 682.633 912.628C685.937 915.428 687.589 919.488 687.589 924.808V925.984C687.589 929.736 686.749 932.732 685.069 934.972C683.389 937.156 681.037 938.724 678.013 939.676C675.045 940.572 671.573 941.02 667.597 941.02H654.157ZM704.699 970V908.68H712.931V970H704.699ZM711.251 970V962.608H740.987V970H711.251ZM711.251 942.532V935.14H738.383V942.532H711.251ZM711.251 916.072V908.68H740.147V916.072H711.251ZM800.807 971.512C795.207 971.512 790.419 970.532 786.443 968.572C782.523 966.612 779.359 964.064 776.951 960.928C774.543 957.792 772.779 954.404 771.659 950.764C770.539 947.068 769.979 943.512 769.979 940.096V938.248C769.979 934.552 770.539 930.856 771.659 927.16C772.835 923.464 774.627 920.104 777.035 917.08C779.443 914.056 782.579 911.62 786.443 909.772C790.307 907.924 794.927 907 800.303 907C805.791 907 810.495 907.952 814.415 909.856C818.335 911.76 821.443 914.42 823.739 917.836C826.035 921.252 827.435 925.284 827.939 929.932H819.539C819.091 926.46 817.971 923.604 816.179 921.364C814.387 919.068 812.119 917.36 809.375 916.24C806.687 915.12 803.663 914.56 800.303 914.56C796.663 914.56 793.471 915.204 790.727 916.492C787.983 917.724 785.687 919.488 783.839 921.784C782.047 924.024 780.675 926.628 779.723 929.596C778.827 932.564 778.379 935.784 778.379 939.256C778.379 942.56 778.827 945.696 779.723 948.664C780.675 951.632 782.075 954.264 783.923 956.56C785.827 958.856 788.179 960.676 790.979 962.02C793.779 963.308 797.055 963.952 800.807 963.952C806.071 963.952 810.495 962.636 814.079 960.004C817.663 957.372 819.847 953.564 820.631 948.58H829.031C828.471 952.78 827.043 956.616 824.747 960.088C822.507 963.56 819.371 966.332 815.339 968.404C811.363 970.476 806.519 971.512 800.807 971.512ZM840.953 970V908.68H849.185V970H840.953ZM847.505 970V962.608H875.561V970H847.505ZM886.644 970V908.68H894.876V970H886.644ZM893.196 970V962.608H922.932V970H893.196ZM893.196 942.532V935.14H920.328V942.532H893.196ZM893.196 916.072V908.68H922.092V916.072H893.196ZM930.459 970L952.551 908.68H966.495L989.259 970H980.775L960.195 914.056L964.227 916.072H954.315L958.599 914.056L938.691 970H930.459ZM943.647 951.688L946.419 944.296H972.879L975.651 951.688H943.647ZM1000.5 970V908.68H1013.94L1045.11 962.608H1047.8L1046.12 964.12V908.68H1054.01V970H1040.4L1009.24 916.072H1006.55L1008.23 914.56V970H1000.5ZM1071.54 983.188L1065.07 980.752L1072.88 959.08L1079.52 961.6L1071.54 983.188ZM1119.44 970.336V963.112H1136.57C1139.88 963.112 1142.43 962.188 1144.22 960.34C1146.07 958.436 1146.99 955.916 1146.99 952.78C1146.99 949.588 1146.09 947.096 1144.3 945.304C1142.51 943.456 1139.93 942.532 1136.57 942.532H1119.44V937.156H1135.4C1139.32 937.156 1142.76 937.632 1145.73 938.584C1148.75 939.536 1151.11 941.132 1152.79 943.372C1154.52 945.556 1155.39 948.552 1155.39 952.36V953.536C1155.39 957.12 1154.66 960.172 1153.21 962.692C1151.75 965.156 1149.54 967.06 1146.57 968.404C1143.6 969.692 1139.88 970.336 1135.4 970.336H1119.44ZM1112.89 970.336V908.344H1121.12V970.336H1112.89ZM1119.44 941.02V935.644H1134.31C1137.78 935.644 1140.33 934.72 1141.95 932.872C1143.63 930.968 1144.47 928.56 1144.47 925.648C1144.47 922.68 1143.63 920.272 1141.95 918.424C1140.33 916.52 1137.78 915.568 1134.31 915.568H1119.44V908.344H1132.88C1139.6 908.344 1144.61 909.772 1147.91 912.628C1151.22 915.428 1152.87 919.488 1152.87 924.808V925.984C1152.87 929.736 1152.03 932.732 1150.35 934.972C1148.67 937.156 1146.32 938.724 1143.29 939.676C1140.33 940.572 1136.85 941.02 1132.88 941.02H1119.44ZM1169.98 970V908.68H1178.21V970H1169.98ZM1176.53 970V962.608H1206.27V970H1176.53ZM1176.53 942.532V935.14H1203.66V942.532H1176.53ZM1176.53 916.072V908.68H1205.43V916.072H1176.53ZM1259.37 971.512C1254.27 971.512 1249.93 970.672 1246.35 968.992C1242.76 967.312 1240.02 964.988 1238.12 962.02C1236.21 959.052 1235.26 955.692 1235.26 951.94H1243.49C1243.49 953.788 1243.97 955.636 1244.92 957.484C1245.93 959.332 1247.58 960.872 1249.88 962.104C1252.23 963.336 1255.39 963.952 1259.37 963.952C1263.06 963.952 1266.09 963.42 1268.44 962.356C1270.79 961.236 1272.53 959.808 1273.65 958.072C1274.77 956.28 1275.33 954.348 1275.33 952.276C1275.33 949.756 1274.24 947.684 1272.05 946.06C1269.87 944.38 1266.68 943.344 1262.48 942.952L1255.67 942.364C1250.24 941.916 1245.9 940.236 1242.65 937.324C1239.4 934.412 1237.78 930.576 1237.78 925.816C1237.78 922.064 1238.68 918.788 1240.47 915.988C1242.32 913.188 1244.86 911.004 1248.11 909.436C1251.36 907.812 1255.14 907 1259.45 907C1263.71 907 1267.46 907.784 1270.71 909.352C1273.96 910.92 1276.48 913.132 1278.27 915.988C1280.12 918.788 1281.04 922.148 1281.04 926.068H1272.81C1272.81 924.108 1272.33 922.26 1271.38 920.524C1270.48 918.788 1269.06 917.36 1267.1 916.24C1265.14 915.12 1262.59 914.56 1259.45 914.56C1256.43 914.56 1253.91 915.092 1251.89 916.156C1249.93 917.22 1248.45 918.62 1247.44 920.356C1246.49 922.036 1246.01 923.856 1246.01 925.816C1246.01 928.056 1246.88 930.044 1248.62 931.78C1250.35 933.516 1252.93 934.524 1256.34 934.804L1263.15 935.392C1267.35 935.728 1270.96 936.624 1273.98 938.08C1277.06 939.48 1279.42 941.384 1281.04 943.792C1282.72 946.144 1283.56 948.972 1283.56 952.276C1283.56 956.028 1282.55 959.36 1280.54 962.272C1278.52 965.184 1275.69 967.452 1272.05 969.076C1268.41 970.7 1264.18 971.512 1259.37 971.512ZM1297.37 970V908.68H1308.29L1326.44 949.588H1327.78L1345.84 908.68H1356.85V970H1348.61V917.668L1349.2 917.836L1331.81 957.316H1321.73L1304.26 917.836L1304.93 917.668V970H1297.37ZM1368.1 970L1390.19 908.68H1404.13L1426.9 970H1418.41L1397.83 914.056L1401.86 916.072H1391.95L1396.24 914.056L1376.33 970H1368.1ZM1381.28 951.688L1384.06 944.296H1410.52L1413.29 951.688H1381.28ZM1438.14 970V908.344H1446.37V970H1438.14ZM1476.02 970L1455.7 942.7H1465.36L1486.02 970H1476.02ZM1443.26 947.824V940.516H1459.73C1462.3 940.516 1464.52 939.984 1466.36 938.92C1468.21 937.856 1469.64 936.4 1470.65 934.552C1471.66 932.648 1472.16 930.492 1472.16 928.084C1472.16 925.676 1471.66 923.548 1470.65 921.7C1469.64 919.796 1468.21 918.312 1466.36 917.248C1464.52 916.128 1462.3 915.568 1459.73 915.568H1443.26V908.344H1458.22C1462.7 908.344 1466.62 909.016 1469.98 910.36C1473.34 911.704 1475.94 913.776 1477.79 916.576C1479.64 919.376 1480.56 922.988 1480.56 927.412V928.756C1480.56 933.18 1479.61 936.792 1477.7 939.592C1475.86 942.392 1473.25 944.464 1469.89 945.808C1466.59 947.152 1462.7 947.824 1458.22 947.824H1443.26ZM1507.57 970V914.392H1515.8V970H1507.57ZM1488.92 916.072V908.68H1534.45V916.072H1488.92Z" fill="#383C93"/>
<path d="M159.955 777.4C159.955 784.747 157.295 791.08 151.975 796.4C146.909 801.467 140.702 804 133.355 804H26.9555V777.4H129.555V724.2H53.5555C46.2088 724.2 39.8755 721.667 34.5555 716.6C29.4888 711.28 26.9555 704.947 26.9555 697.6V644.4C26.9555 637.053 29.4888 630.847 34.5555 625.78C39.8755 620.46 46.2088 617.8 53.5555 617.8H159.955V644.4H57.3555V697.6H133.355C140.702 697.6 146.909 700.26 151.975 705.58C157.295 710.647 159.955 716.853 159.955 724.2V777.4ZM437.445 804H410.845V693.8H338.645V804H312.045V693.8H239.845V804H213.245V671H239.845V690L258.845 671H312.045C327.498 671 336.238 677.46 338.265 690.38L357.645 671H410.845C418.191 671 424.398 673.66 429.465 678.98C434.785 684.047 437.445 690.253 437.445 697.6V804ZM618.123 804H591.523V784.62L568.723 804H511.723C504.376 804 498.043 801.467 492.723 796.4C487.656 791.08 485.123 784.747 485.123 777.4V750.8C485.123 743.453 487.656 737.247 492.723 732.18C498.043 726.86 504.376 724.2 511.723 724.2H587.723L564.923 746.62H511.723V781.2H591.523V693.8H485.123L507.923 671H591.523C598.869 671 605.076 673.66 610.143 678.98C615.463 684.047 618.123 690.253 618.123 697.6V804ZM777.574 724.2H750.974V693.8H697.774V804H671.174V671H697.774V690L716.774 671H750.974C758.321 671 764.528 673.66 769.594 678.98C774.914 684.047 777.574 690.253 777.574 697.6V724.2ZM906.641 804H853.441C846.094 804 839.761 801.467 834.441 796.4C829.374 791.08 826.841 784.747 826.841 777.4V693.8H788.841L811.641 671H826.841V644.4L853.441 617.8V671H906.641V693.8H853.441V781.2H906.641V804ZM1077.67 777.4C1077.67 784.747 1075.01 791.08 1069.69 796.4C1064.62 801.467 1058.42 804 1051.07 804H944.67V777.4H1047.27V724.2H971.27C963.924 724.2 957.59 721.667 952.27 716.6C947.204 711.28 944.67 704.947 944.67 697.6V644.4C944.67 637.053 947.204 630.847 952.27 625.78C957.59 620.46 963.924 617.8 971.27 617.8H1077.67V644.4H975.07V697.6H1051.07C1058.42 697.6 1064.62 700.26 1069.69 705.58C1075.01 710.647 1077.67 716.853 1077.67 724.2V777.4ZM1263.96 777.4C1263.96 784.747 1261.3 791.08 1255.98 796.4C1250.91 801.467 1244.71 804 1237.36 804H1157.56C1150.21 804 1143.88 801.467 1138.56 796.4C1133.49 791.08 1130.96 784.747 1130.96 777.4V697.6C1130.96 690.253 1133.49 684.047 1138.56 678.98C1143.88 673.66 1150.21 671 1157.56 671H1237.36C1244.71 671 1250.91 673.66 1255.98 678.98C1261.3 684.047 1263.96 690.253 1263.96 697.6V777.4ZM1237.36 781.2V693.8H1157.56V781.2H1237.36ZM1347.65 804H1321.05V610.2L1347.65 583.6V804ZM1532.13 804H1505.53V784.62L1482.73 804H1425.73C1418.38 804 1412.05 801.467 1406.73 796.4C1401.66 791.08 1399.13 784.747 1399.13 777.4V750.8C1399.13 743.453 1401.66 737.247 1406.73 732.18C1412.05 726.86 1418.38 724.2 1425.73 724.2H1501.73L1478.93 746.62H1425.73V781.2H1505.53V693.8H1399.13L1421.93 671H1505.53C1512.87 671 1519.08 673.66 1524.15 678.98C1529.47 684.047 1532.13 690.253 1532.13 697.6V804ZM1691.58 724.2H1664.98V693.8H1611.78V804H1585.18V671H1611.78V690L1630.78 671H1664.98C1672.32 671 1678.53 673.66 1683.6 678.98C1688.92 684.047 1691.58 690.253 1691.58 697.6V724.2Z" fill="#383C93"/>
</g>
<defs>
<clipPath id="clip0_5_40">
<rect width="2405" height="1449" fill="white"/>
</clipPath>
</defs>
</svg>
