<svg width="11.608368" height="11.608368" viewBox="0 0 11.6084 11.6084" fill="none" xmlns="http://www.w3.org/2000/svg" xmlns:xlink="http://www.w3.org/1999/xlink">
	<desc>
			Created with Pixso.
	</desc>
	<defs/>
	<g style="mix-blend-mode:normal">
		<path id="shouyi" d="M0.85 4.53L0.85 2.04C0.85 1.38 1.38 0.85 2.04 0.85L9.56 0.85C10.21 0.85 10.74 1.38 10.74 2.04L10.74 9.56C10.74 10.21 10.21 10.74 9.56 10.74L2.04 10.74C1.38 10.74 0.85 10.21 0.85 9.56L0.85 8.03C0.85 7.79 0.66 7.6 0.42 7.6C0.19 7.6 0 7.79 0 8.03L0 9.56C0 10.69 0.91 11.6 2.04 11.6L9.56 11.6C10.69 11.6 11.6 10.69 11.6 9.56L11.6 2.04C11.6 0.91 10.69 3.05e-5 9.56 0L2.04 0C0.91 0 2.28e-5 0.91 7.62e-6 2.04L7.62e-6 4.53C7.62e-6 4.77 0.19 4.96 0.42 4.96C0.66 4.96 0.85 4.77 0.85 4.53ZM8.21 3.54L6.97 3.54C6.74 3.54 6.54 3.35 6.54 3.11C6.54 2.87 6.74 2.68 6.97 2.68L9.1 2.68C9.37 2.68 9.58 2.9 9.58 3.17L9.58 5.18C9.58 5.42 9.39 5.61 9.15 5.61C8.92 5.61 8.72 5.42 8.72 5.18L8.72 4.25L6.35 6.74C6.12 6.92 5.71 6.93 5.54 6.69L4.24 4.96L1.8 7.39C1.63 7.55 1.37 7.54 1.2 7.38C1.04 7.21 1.04 6.95 1.2 6.78L3.9 4.09C4.01 3.98 4.16 3.93 4.31 3.94C4.47 3.95 4.61 4.03 4.71 4.15L5.99 5.87L8.21 3.54Z" fill="#FFFFFF" fill-opacity="1.000000" fill-rule="nonzero"/>
		<path id="shouyi" d="M0.85 2.04C0.85 1.38 1.38 0.85 2.04 0.85L9.56 0.85C10.21 0.85 10.74 1.38 10.74 2.04L10.74 9.56C10.74 10.21 10.21 10.74 9.56 10.74L2.04 10.74C1.38 10.74 0.85 10.21 0.85 9.56L0.85 8.03C0.85 7.79 0.66 7.6 0.42 7.6C0.19 7.6 0 7.79 0 8.03L0 9.56C0 10.69 0.91 11.6 2.04 11.6L9.56 11.6C10.69 11.6 11.6 10.69 11.6 9.56L11.6 2.04C11.6 0.91 10.69 3.05e-5 9.56 0L2.04 0C0.91 0 2.28e-5 0.91 7.62e-6 2.04L7.62e-6 4.53C7.62e-6 4.77 0.19 4.96 0.42 4.96C0.66 4.96 0.85 4.77 0.85 4.53L0.85 2.04ZM6.97 3.54C6.74 3.54 6.54 3.35 6.54 3.11C6.54 2.87 6.74 2.68 6.97 2.68L9.1 2.68C9.37 2.68 9.58 2.9 9.58 3.17L9.58 5.18C9.58 5.42 9.39 5.61 9.15 5.61C8.92 5.61 8.72 5.42 8.72 5.18L8.72 4.25L6.35 6.74C6.12 6.92 5.71 6.93 5.54 6.69L4.24 4.96L1.8 7.39C1.63 7.55 1.37 7.54 1.2 7.38C1.04 7.21 1.04 6.95 1.2 6.78L3.9 4.09C4.01 3.98 4.16 3.93 4.31 3.94C4.47 3.95 4.61 4.03 4.71 4.15L5.99 5.87L8.21 3.54L6.97 3.54Z" stroke="#707070" stroke-opacity="0" stroke-width="1.000000"/>
	</g>
</svg>
